<mxfile host="app.diagrams.net" modified="2024-04-19T00:34:09.916Z" agent="Mozilla/5.0 (Windows NT 10.0; Win64; x64) AppleWebKit/537.36 (KHTML, like Gecko) Chrome/123.0.0.0 Safari/537.36" etag="g1s8rCJLYU197J7-ST4j" version="24.2.5" type="github">
  <diagram name="PÃ¡gina-1" id="m7eVMlrmM33D4-53V9Jl">
    <mxGraphModel dx="1186" dy="468" grid="1" gridSize="10" guides="1" tooltips="1" connect="1" arrows="1" fold="1" page="1" pageScale="1" pageWidth="827" pageHeight="1169" math="0" shadow="0">
      <root>
        <mxCell id="0" />
        <mxCell id="1" parent="0" />
        <mxCell id="jbsVPqTqM8B3IsOXwgra-6" value="Singleton" style="swimlane;fontStyle=1;align=center;verticalAlign=top;childLayout=stackLayout;horizontal=1;startSize=26;horizontalStack=0;resizeParent=1;resizeParentMax=0;resizeLast=0;collapsible=1;marginBottom=0;whiteSpace=wrap;html=1;" vertex="1" parent="1">
          <mxGeometry x="310" y="240" width="240" height="150" as="geometry" />
        </mxCell>
        <mxCell id="jbsVPqTqM8B3IsOXwgra-14" style="edgeStyle=orthogonalEdgeStyle;rounded=0;orthogonalLoop=1;jettySize=auto;html=1;exitX=1;exitY=0.5;exitDx=0;exitDy=0;entryX=0.75;entryY=0;entryDx=0;entryDy=0;" edge="1" parent="jbsVPqTqM8B3IsOXwgra-6" source="jbsVPqTqM8B3IsOXwgra-7" target="jbsVPqTqM8B3IsOXwgra-6">
          <mxGeometry relative="1" as="geometry">
            <mxPoint x="170" y="10" as="targetPoint" />
            <Array as="points">
              <mxPoint x="280" y="39" />
              <mxPoint x="280" y="-20" />
              <mxPoint x="170" y="-20" />
              <mxPoint x="170" />
            </Array>
          </mxGeometry>
        </mxCell>
        <mxCell id="jbsVPqTqM8B3IsOXwgra-7" value="- instance: Singleton" style="text;strokeColor=none;fillColor=none;align=left;verticalAlign=top;spacingLeft=4;spacingRight=4;overflow=hidden;rotatable=0;points=[[0,0.5],[1,0.5]];portConstraint=eastwest;whiteSpace=wrap;html=1;" vertex="1" parent="jbsVPqTqM8B3IsOXwgra-6">
          <mxGeometry y="26" width="240" height="26" as="geometry" />
        </mxCell>
        <mxCell id="jbsVPqTqM8B3IsOXwgra-8" value="" style="line;strokeWidth=1;fillColor=none;align=left;verticalAlign=middle;spacingTop=-1;spacingLeft=3;spacingRight=3;rotatable=0;labelPosition=right;points=[];portConstraint=eastwest;strokeColor=inherit;" vertex="1" parent="jbsVPqTqM8B3IsOXwgra-6">
          <mxGeometry y="52" width="240" height="8" as="geometry" />
        </mxCell>
        <mxCell id="jbsVPqTqM8B3IsOXwgra-9" value="&lt;div&gt;- Singleton()&lt;/div&gt;+ GetInstance(): Singleton&lt;div&gt;+ ShowMenu(string, MenuTemplate): string&lt;/div&gt;" style="text;strokeColor=none;fillColor=none;align=left;verticalAlign=top;spacingLeft=4;spacingRight=4;overflow=hidden;rotatable=0;points=[[0,0.5],[1,0.5]];portConstraint=eastwest;whiteSpace=wrap;html=1;" vertex="1" parent="jbsVPqTqM8B3IsOXwgra-6">
          <mxGeometry y="60" width="240" height="90" as="geometry" />
        </mxCell>
        <mxCell id="jbsVPqTqM8B3IsOXwgra-11" style="edgeStyle=orthogonalEdgeStyle;rounded=0;orthogonalLoop=1;jettySize=auto;html=1;entryX=0;entryY=0.5;entryDx=0;entryDy=0;" edge="1" parent="1" source="jbsVPqTqM8B3IsOXwgra-10" target="jbsVPqTqM8B3IsOXwgra-9">
          <mxGeometry relative="1" as="geometry" />
        </mxCell>
        <mxCell id="jbsVPqTqM8B3IsOXwgra-10" value="Client" style="html=1;whiteSpace=wrap;" vertex="1" parent="1">
          <mxGeometry x="150" y="320" width="110" height="50" as="geometry" />
        </mxCell>
        <mxCell id="jbsVPqTqM8B3IsOXwgra-16" value="&lt;i&gt;MenuTemplate&lt;/i&gt;" style="swimlane;fontStyle=1;align=center;verticalAlign=top;childLayout=stackLayout;horizontal=1;startSize=26;horizontalStack=0;resizeParent=1;resizeParentMax=0;resizeLast=0;collapsible=1;marginBottom=0;whiteSpace=wrap;html=1;" vertex="1" parent="1">
          <mxGeometry x="490" y="430" width="170" height="130" as="geometry" />
        </mxCell>
        <mxCell id="jbsVPqTqM8B3IsOXwgra-17" value="..." style="text;strokeColor=none;fillColor=none;align=left;verticalAlign=top;spacingLeft=4;spacingRight=4;overflow=hidden;rotatable=0;points=[[0,0.5],[1,0.5]];portConstraint=eastwest;whiteSpace=wrap;html=1;" vertex="1" parent="jbsVPqTqM8B3IsOXwgra-16">
          <mxGeometry y="26" width="170" height="26" as="geometry" />
        </mxCell>
        <mxCell id="jbsVPqTqM8B3IsOXwgra-18" value="" style="line;strokeWidth=1;fillColor=none;align=left;verticalAlign=middle;spacingTop=-1;spacingLeft=3;spacingRight=3;rotatable=0;labelPosition=right;points=[];portConstraint=eastwest;strokeColor=inherit;" vertex="1" parent="jbsVPqTqM8B3IsOXwgra-16">
          <mxGeometry y="52" width="170" height="8" as="geometry" />
        </mxCell>
        <mxCell id="jbsVPqTqM8B3IsOXwgra-19" value="+ Run(string): void&lt;div&gt;# LimparTela(): void&lt;/div&gt;&lt;div&gt;&lt;i&gt;#&lt;/i&gt; &lt;i&gt;ExecutarAcoes(string): void&lt;/i&gt;&lt;/div&gt;" style="text;strokeColor=none;fillColor=none;align=left;verticalAlign=top;spacingLeft=4;spacingRight=4;overflow=hidden;rotatable=0;points=[[0,0.5],[1,0.5]];portConstraint=eastwest;whiteSpace=wrap;html=1;" vertex="1" parent="jbsVPqTqM8B3IsOXwgra-16">
          <mxGeometry y="60" width="170" height="70" as="geometry" />
        </mxCell>
        <mxCell id="jbsVPqTqM8B3IsOXwgra-20" value="Biblioteca" style="swimlane;fontStyle=1;align=center;verticalAlign=top;childLayout=stackLayout;horizontal=1;startSize=26;horizontalStack=0;resizeParent=1;resizeParentMax=0;resizeLast=0;collapsible=1;marginBottom=0;whiteSpace=wrap;html=1;" vertex="1" parent="1">
          <mxGeometry x="290" y="660" width="230" height="160" as="geometry" />
        </mxCell>
        <mxCell id="jbsVPqTqM8B3IsOXwgra-21" value="..." style="text;strokeColor=none;fillColor=none;align=left;verticalAlign=top;spacingLeft=4;spacingRight=4;overflow=hidden;rotatable=0;points=[[0,0.5],[1,0.5]];portConstraint=eastwest;whiteSpace=wrap;html=1;" vertex="1" parent="jbsVPqTqM8B3IsOXwgra-20">
          <mxGeometry y="26" width="230" height="26" as="geometry" />
        </mxCell>
        <mxCell id="jbsVPqTqM8B3IsOXwgra-22" value="" style="line;strokeWidth=1;fillColor=none;align=left;verticalAlign=middle;spacingTop=-1;spacingLeft=3;spacingRight=3;rotatable=0;labelPosition=right;points=[];portConstraint=eastwest;strokeColor=inherit;" vertex="1" parent="jbsVPqTqM8B3IsOXwgra-20">
          <mxGeometry y="52" width="230" height="8" as="geometry" />
        </mxCell>
        <mxCell id="jbsVPqTqM8B3IsOXwgra-23" value="+ CadastrarLivro(Repositorio): void&lt;div&gt;+ ListarLivros(Repositorio): void&lt;br&gt;&lt;/div&gt;&lt;div&gt;+ AtualizarLivro(Repositorio): void&lt;br&gt;&lt;/div&gt;&lt;div&gt;+ RemoverLivro(Repositorio): void&lt;br&gt;&lt;/div&gt;&lt;div&gt;# ExecutarAcoes(string): void&lt;/div&gt;" style="text;strokeColor=none;fillColor=none;align=left;verticalAlign=top;spacingLeft=4;spacingRight=4;overflow=hidden;rotatable=0;points=[[0,0.5],[1,0.5]];portConstraint=eastwest;whiteSpace=wrap;html=1;" vertex="1" parent="jbsVPqTqM8B3IsOXwgra-20">
          <mxGeometry y="60" width="230" height="100" as="geometry" />
        </mxCell>
        <mxCell id="jbsVPqTqM8B3IsOXwgra-38" style="edgeStyle=orthogonalEdgeStyle;rounded=0;orthogonalLoop=1;jettySize=auto;html=1;" edge="1" parent="1" source="jbsVPqTqM8B3IsOXwgra-24">
          <mxGeometry relative="1" as="geometry">
            <mxPoint x="670" y="600" as="targetPoint" />
          </mxGeometry>
        </mxCell>
        <mxCell id="jbsVPqTqM8B3IsOXwgra-24" value="Secretaria" style="swimlane;fontStyle=1;align=center;verticalAlign=top;childLayout=stackLayout;horizontal=1;startSize=26;horizontalStack=0;resizeParent=1;resizeParentMax=0;resizeLast=0;collapsible=1;marginBottom=0;whiteSpace=wrap;html=1;" vertex="1" parent="1">
          <mxGeometry x="610" y="660" width="210" height="160" as="geometry" />
        </mxCell>
        <mxCell id="jbsVPqTqM8B3IsOXwgra-25" value="..." style="text;strokeColor=none;fillColor=none;align=left;verticalAlign=top;spacingLeft=4;spacingRight=4;overflow=hidden;rotatable=0;points=[[0,0.5],[1,0.5]];portConstraint=eastwest;whiteSpace=wrap;html=1;" vertex="1" parent="jbsVPqTqM8B3IsOXwgra-24">
          <mxGeometry y="26" width="210" height="26" as="geometry" />
        </mxCell>
        <mxCell id="jbsVPqTqM8B3IsOXwgra-26" value="" style="line;strokeWidth=1;fillColor=none;align=left;verticalAlign=middle;spacingTop=-1;spacingLeft=3;spacingRight=3;rotatable=0;labelPosition=right;points=[];portConstraint=eastwest;strokeColor=inherit;" vertex="1" parent="jbsVPqTqM8B3IsOXwgra-24">
          <mxGeometry y="52" width="210" height="8" as="geometry" />
        </mxCell>
        <mxCell id="jbsVPqTqM8B3IsOXwgra-27" value="+ CadastrarAluno(Repositorio): void&lt;div&gt;+ ListarAlunos(Repositorio): void&lt;br&gt;&lt;/div&gt;&lt;div&gt;+ AtualizarAluno(Repositorio): void&lt;br&gt;&lt;/div&gt;&lt;div&gt;+ RemoverAluno(Repositorio): void&lt;br&gt;&lt;/div&gt;&lt;div&gt;# ExecutarAcoes(string): void&lt;br&gt;&lt;/div&gt;" style="text;strokeColor=none;fillColor=none;align=left;verticalAlign=top;spacingLeft=4;spacingRight=4;overflow=hidden;rotatable=0;points=[[0,0.5],[1,0.5]];portConstraint=eastwest;whiteSpace=wrap;html=1;" vertex="1" parent="jbsVPqTqM8B3IsOXwgra-24">
          <mxGeometry y="60" width="210" height="100" as="geometry" />
        </mxCell>
        <mxCell id="jbsVPqTqM8B3IsOXwgra-32" value="" style="endArrow=block;endSize=16;endFill=0;html=1;rounded=0;exitX=0.5;exitY=0;exitDx=0;exitDy=0;entryX=0.5;entryY=1.029;entryDx=0;entryDy=0;entryPerimeter=0;" edge="1" parent="1" source="jbsVPqTqM8B3IsOXwgra-20" target="jbsVPqTqM8B3IsOXwgra-19">
          <mxGeometry x="0.6073" y="-43" width="160" relative="1" as="geometry">
            <mxPoint x="470" y="610" as="sourcePoint" />
            <mxPoint x="580" y="580" as="targetPoint" />
            <Array as="points">
              <mxPoint x="405" y="620" />
              <mxPoint x="575" y="620" />
            </Array>
            <mxPoint as="offset" />
          </mxGeometry>
        </mxCell>
      </root>
    </mxGraphModel>
  </diagram>
</mxfile>
